<svg xmlns="http://www.w3.org/2000/svg" fill="none" viewBox="0 0 14 14" height="14" width="14" id="Like-1--Streamline-Flex.svg"><desc>Like 1 Streamline Icon: https://streamlinehq.com</desc><g id="like-1--reward-social-up-rating-media-like-thumb-hand"><path id="Vector 107" fill="#8fbffa" d="M6.62384 0.879501 3.46477 5.76134H1.06226v6.22916h2.40251c1.15343 0.3296 3.9465 1.2595 6.71473 1.2595 2.1031 0 3.8204 -4.52268 3.8204 -6.5 0 -1.97732 -1.9773 -2.96598 -2.966 -2.96598H9.04343l0.25851 -1.84813C9.42653 1.04519 8.73483 0.25 7.83545 0.25c-0.48228 0 -0.93436 0.234875 -1.21161 0.629501Z" stroke-width="1"></path><path id="Rectangle 42" fill="#2859c5" d="M2.78281 12.3586V5.3014c0 -0.76845 -0.62296 -1.3914 -1.39141 -1.3914C0.622952 3.91 0 4.53295 0 5.3014v7.0572C0 13.127 0.622952 13.75 1.3914 13.75c0.76845 0 1.39141 -0.623 1.39141 -1.3914Z" stroke-width="1"></path></g></svg>