<svg xmlns="http://www.w3.org/2000/svg" fill="none" viewBox="0 0 14 14" height="14" width="14" id="Phone-Mobile-Phone--Streamline-Flex.svg"><desc>Phone Mobile Phone Streamline Icon: https://streamlinehq.com</desc><g id="phone-mobile-phone--android-phone-mobile-device-smartphone-iphone"><path id="Union" fill="#8fbffa" fill-rule="evenodd" d="M9.48816 0.0975279c-1.69442 -0.1300371 -3.2819 -0.1300372 -4.97631 -2e-7C3.07789 0.207576 2.0284 1.44095 1.91524 2.8668c-0.22032 2.77603 -0.22032 5.49037 0 8.2664 0.11316 1.4259 1.16265 2.6592 2.59661 2.7693 1.69441 0.13 3.28189 0.13 4.9763 0 1.43395 -0.1101 2.48345 -1.3434 2.59665 -2.7693 0.2203 -2.77603 0.2203 -5.49037 0 -8.2664C11.9716 1.44095 10.9221 0.207576 9.48816 0.0975279Z" clip-rule="evenodd" stroke-width="1"></path><path id="Vector 122 (Stroke)" fill="#2859c5" fill-rule="evenodd" d="M5.34863 10.9751c0 -0.4142 0.33579 -0.75 0.75 -0.75h1.80333c0.41421 0 0.75 0.3358 0.75 0.75s-0.33579 0.75 -0.75 0.75H6.09863c-0.41421 0 -0.75 -0.3358 -0.75 -0.75Z" clip-rule="evenodd" stroke-width="1"></path></g></svg>