<svg xmlns="http://www.w3.org/2000/svg" fill="none" viewBox="0 0 14 14" height="14" width="14" id="Screen-Curve--Streamline-Flex.svg"><desc>Screen Curve Streamline Icon: https://streamlinehq.com</desc><g id="screen-curve--screen-curved-device-electronics-monitor-diplay-computer"><path id="Union" fill="#2859c5" fill-rule="evenodd" d="M7.75012 9.98779c0 -0.41421 -0.33579 -0.75 -0.75 -0.75 -0.41422 0 -0.75 0.33579 -0.75 0.75v2.11311c-0.6167 0.0299 -1.23592 0.0967 -1.86392 0.2005 -0.40867 0.0674 -0.68525 0.4535 -0.61776 0.8621 0.0675 0.4087 0.45351 0.6853 0.86219 0.6178 1.60383 -0.2649 3.13506 -0.2649 4.73889 0 0.40868 0.0675 0.79468 -0.2091 0.86218 -0.6178 0.0675 -0.4086 -0.2091 -0.7947 -0.61776 -0.8621 -0.62796 -0.1038 -1.24716 -0.1706 -1.86382 -0.2005V9.98779Z" clip-rule="evenodd" stroke-width="1"></path><path id="Union_2" fill="#8fbffa" fill-rule="evenodd" d="M2.48083 0.192959C1.53847 0.0314739 0.63289 0.676898 0.505633 1.6455c-0.340844 2.59429 -0.340844 5.02072 0 7.61502 0.127257 0.96858 1.032837 1.61398 1.975197 1.45258C3.7124 10.502 5.7536 10.1906 7 10.1906s3.2876 0.3114 4.5192 0.5225c0.9423 0.1614 1.8479 -0.484 1.9752 -1.45258 0.3408 -2.5943 0.3408 -5.02073 0 -7.61502C13.3671 0.676899 12.4615 0.0314741 11.5192 0.192959 10.2876 0.404002 8.2464 0.715458 7 0.715458c-1.2464 0 -3.2876 -0.311456 -4.51917 -0.522499Z" clip-rule="evenodd" stroke-width="1"></path></g></svg>