<svg xmlns="http://www.w3.org/2000/svg" fill="none" viewBox="0 0 14 14" height="14" width="14" id="User-Single-Neutral--Streamline-Flex.svg"><desc>User Single Neutral Streamline Icon: https://streamlinehq.com</desc><g id="user-single-neutral--close-geometric-human-person-single-up-user"><path id="Union" fill="#8fbffa" fill-rule="evenodd" d="M7.00003 0.25c-1.09204 0 -2.01579 0.308682 -2.66606 0.95895 -0.65026 0.65026 -0.95894 1.57402 -0.95894 2.66605 0 1.09203 0.30868 2.01579 0.95894 2.66605 0.65027 0.65027 1.57402 0.95895 2.66606 0.95895 1.09203 0 2.01579 -0.30868 2.66605 -0.95895 0.65022 -0.65026 0.95892 -1.57402 0.95892 -2.66605 0 -1.09203 -0.3087 -2.01579 -0.95892 -2.66605C9.01582 0.558682 8.09206 0.25 7.00003 0.25Zm-5.85661 9.9272c1.67635 -1.11312 3.69114 -1.76192 5.85661 -1.76192 2.16546 0 4.18027 0.6488 5.85657 1.76192 0.4229 0.2808 0.7032 0.6514 0.8251 1.069 0.1212 0.415 0.0753 0.8406 -0.0907 1.2143 -0.3311 0.7449 -1.1348 1.2896 -2.129 1.2896H2.53807c-0.99425 0 -1.797939 -0.5447 -2.128966 -1.2896 -0.166061 -0.3737 -0.211925 -0.7993 -0.090751 -1.2143 0.121929 -0.4176 0.402209 -0.7882 0.825067 -1.069Z" clip-rule="evenodd" stroke-width="1"></path></g></svg>